HIERARCHY
ROOT Hips
{
	OFFSET -0.001795 -0.223333 0.028219
	CHANNELS 6 Xposition Yposition Zposition Zrotation Yrotation Xrotation 
	JOINT LeftUpLeg
	{
		OFFSET 0.069520 -0.091406 -0.006815
		CHANNELS 3 Zrotation Yrotation Xrotation
		JOINT LeftLeg
		{
			OFFSET 0.034277 -0.375199 -0.004496
			CHANNELS 3 Zrotation Yrotation Xrotation
			JOINT LeftFoot
			{
				OFFSET -0.013596 -0.397961 -0.043693
				CHANNELS 3 Zrotation Yrotation Xrotation
				JOINT LeftToe
				{
					OFFSET 0.026358 -0.055791 0.119288
					CHANNELS 3 Zrotation Yrotation Xrotation
					End Site
					{
						OFFSET 0.000000 0.000000 0.000000
					}
				}
			}
		}
	}
	JOINT RightUpLeg
	{
		OFFSET -0.067670 -0.090522 -0.004320
		CHANNELS 3 Zrotation Yrotation Xrotation
		JOINT RightLeg
		{
			OFFSET -0.038290 -0.382569 -0.008850
			CHANNELS 3 Zrotation Yrotation Xrotation
			JOINT RightFoot
			{
				OFFSET 0.015774 -0.398415 -0.042312
				CHANNELS 3 Zrotation Yrotation Xrotation
				JOINT RightToe
				{
					OFFSET -0.025372 -0.048144 0.123348
					CHANNELS 3 Zrotation Yrotation Xrotation
					End Site
					{
						OFFSET 0.000000 0.000000 0.000000
					}
				}
			}
		}
	}
	JOINT Spine
	{
		OFFSET -0.002533 0.108963 -0.026696
		CHANNELS 3 Zrotation Yrotation Xrotation
		JOINT Spine1
		{
			OFFSET 0.005487 0.135180 0.001092
			CHANNELS 3 Zrotation Yrotation Xrotation
			JOINT Spine2
			{
				OFFSET 0.001457 0.052922 0.025425
				CHANNELS 3 Zrotation Yrotation Xrotation
				JOINT Neck
				{
					OFFSET -0.002778 0.213870 -0.042857
					CHANNELS 3 Zrotation Yrotation Xrotation
					JOINT Head
					{
						OFFSET 0.005152 0.064970 0.051349
						CHANNELS 3 Zrotation Yrotation Xrotation
						End Site
						{
							OFFSET 0.000000 0.000000 0.000000
						}
					}
				}
				JOINT LeftShoulder
				{
					OFFSET 0.078845 0.121749 -0.034090
					CHANNELS 3 Zrotation Yrotation Xrotation
					JOINT LeftArm
					{
						OFFSET 0.090977 0.030469 -0.008868
						CHANNELS 3 Zrotation Yrotation Xrotation
						JOINT LeftForeArm
						{
							OFFSET 0.259612 -0.012772 -0.027456
							CHANNELS 3 Zrotation Yrotation Xrotation
							JOINT LeftHand
							{
								OFFSET 0.249234 0.008986 -0.001171
								CHANNELS 3 Zrotation Yrotation Xrotation
								End Site
								{
									OFFSET 0.000000 0.000000 0.000000
								}
							}
						}
					}
				}
				JOINT RightShoulder
				{
					OFFSET -0.081759 0.118833 -0.038615
					CHANNELS 3 Zrotation Yrotation Xrotation
					JOINT RightArm
					{
						OFFSET -0.096012 0.032551 -0.009143
						CHANNELS 3 Zrotation Yrotation Xrotation
						JOINT RightForeArm
						{
							OFFSET -0.253742 -0.013329 -0.021401
							CHANNELS 3 Zrotation Yrotation Xrotation
							JOINT RightHand
							{
								OFFSET -0.255298 0.007772 -0.005559
								CHANNELS 3 Zrotation Yrotation Xrotation
								End Site
								{
									OFFSET 0.000000 0.000000 0.000000
								}
							}
						}
					}
				}
			}
		}
	}
}
MOTION
Frames: 8
Frame Time: 0.050000
0.000000 0.929908 0.000000 -1.594367 -10.182277 2.024309 -0.835737 -0.294029 -2.915365 -0.905339 0.039723 11.793025 3.486806 7.753147 1.413518 0.000000 0.000000 0.000000 -3.085687 2.343297 -23.629294 0.389146 1.315494 21.371880 0.234038 -7.849638 16.637759 0.000000 0.000000 0.000000 8.987039 -0.986757 8.026855 -5.653803 1.737677 -26.538453 -2.797946 3.675304 28.821000 11.175804 -5.181329 -28.438652 0.000000 0.000000 0.000000 -18.752878 -12.491292 6.815824 -67.352009 -21.834820 2.134183 -157.723150 -68.703923 163.665898 0.000000 0.000000 0.000000 25.080988 0.079882 -2.445467 75.447181 9.543649 -4.104291 115.878363 51.610137 83.436807 0.000000 0.000000 0.000000 
-0.009823 0.928312 0.021380 -2.685833 -10.831685 3.239284 0.568271 -0.045125 -0.487962 -0.785173 0.016233 8.380979 3.756445 8.241458 0.651231 0.000000 0.000000 0.000000 -3.540646 2.561180 -25.641402 0.804781 0.613741 13.325529 -1.796068 -12.230214 19.089853 0.000000 0.000000 0.000000 9.881568 -1.056878 7.862111 -3.658240 1.282324 -27.628615 -4.832251 2.195418 28.557967 9.611358 -4.642915 -27.828406 0.000000 0.000000 0.000000 -17.284014 -12.013272 6.800195 -68.397717 -23.538263 3.681290 -165.342576 -69.193229 175.768396 0.000000 0.000000 0.000000 23.650830 1.011457 -2.409955 75.349775 7.576973 -5.539402 118.168197 49.007992 80.970044 0.000000 0.000000 0.000000 
-0.021885 0.923064 0.044584 -2.216466 -11.723317 3.498436 0.810169 0.133964 1.454136 -1.527413 0.178434 7.459215 4.084365 8.898083 -0.182630 0.000000 0.000000 0.000000 -3.375048 2.658047 -25.795865 -0.511252 0.623291 9.718793 1.807728 -4.131902 13.702501 0.000000 0.000000 0.000000 9.480204 -0.957656 7.242330 -2.616259 1.001501 -25.801986 -6.261076 2.482718 26.406000 10.174903 -4.567369 -29.842037 0.000000 0.000000 0.000000 -18.242658 -14.208542 8.089337 -70.759099 -28.012194 7.416024 -176.744226 -70.899670 -168.073026 0.000000 0.000000 0.000000 24.816589 1.884428 -2.198554 72.556124 6.722008 -5.659263 120.263799 49.881999 83.559339 0.000000 0.000000 0.000000 
-0.036592 0.915184 0.070149 -2.490962 -12.425776 3.977988 1.114520 0.245086 2.663593 -0.791253 0.042564 8.134847 4.655239 10.078488 -1.926136 0.000000 0.000000 0.000000 -2.045306 3.052139 -26.605517 -1.632062 0.970662 11.438533 3.486746 1.819560 9.098678 0.000000 0.000000 0.000000 10.561656 -1.097943 7.844178 -2.827776 1.085978 -27.599004 -7.499992 2.434849 26.371526 9.605971 -4.261952 -30.220257 0.000000 0.000000 0.000000 -17.652236 -15.844649 8.995474 -73.405670 -30.131806 9.768606 178.744401 -71.068490 -161.252415 0.000000 0.000000 0.000000 25.799532 1.369067 -2.872831 72.592768 6.725372 -5.597821 122.347384 48.264253 83.449079 0.000000 0.000000 0.000000 
-0.054317 0.908547 0.098761 -2.841264 -13.049228 4.167444 1.666190 0.424495 4.640484 -0.054235 -0.101075 8.411096 5.057276 11.065685 -2.365073 0.000000 0.000000 0.000000 -1.099137 3.404502 -27.465911 -0.875392 1.280269 16.337926 1.671100 -1.022168 7.313193 0.000000 0.000000 0.000000 10.491472 -1.063091 7.617721 -2.324821 0.958619 -27.266763 -8.278459 1.233266 25.622366 9.482894 -4.453104 -29.994215 0.000000 0.000000 0.000000 -18.568150 -16.785099 10.068774 -73.910120 -33.812749 12.886538 172.083846 -71.654604 -151.504646 0.000000 0.000000 0.000000 25.727194 3.383550 -2.236191 71.094471 7.965131 -4.574848 124.023896 51.478891 88.366668 0.000000 0.000000 0.000000 
-0.075360 0.902718 0.130541 -3.554238 -13.985278 4.395856 3.085570 0.462635 5.469241 -0.106236 -0.046899 12.070818 5.115209 11.266612 -2.515786 0.000000 0.000000 0.000000 -0.012810 3.801653 -28.163616 0.809258 1.406439 21.546923 -0.170550 -4.103400 5.542956 0.000000 0.000000 0.000000 10.497437 -1.072651 7.757525 -1.476241 0.836165 -28.670338 -8.014000 1.432990 25.918547 8.963028 -4.045294 -31.265492 0.000000 0.000000 0.000000 -19.078902 -17.521416 10.768841 -74.619893 -36.868968 15.505114 167.375445 -71.963397 -144.753753 0.000000 0.000000 0.000000 25.719963 4.082465 -2.002692 70.967582 8.821862 -4.020245 128.057841 52.114559 94.101427 0.000000 0.000000 0.000000 
-0.098780 0.900199 0.164176 -4.436780 -14.699494 4.572147 4.533621 0.395335 5.045533 0.690918 -0.109057 18.147859 4.417486 9.795121 0.458666 0.000000 0.000000 0.000000 1.119500 3.937317 -27.434666 2.913062 1.169624 24.826077 -1.219458 -5.596866 3.921984 0.000000 0.000000 0.000000 10.862392 -0.965297 6.720018 -1.188416 0.689464 -27.396622 -8.075524 0.292610 24.350550 8.290273 -4.008155 -30.074034 0.000000 0.000000 0.000000 -19.304005 -17.397462 11.086266 -74.844188 -40.350397 18.692118 159.063419 -73.117815 -134.379660 0.000000 0.000000 0.000000 25.950176 6.084517 -1.431783 71.508514 10.559098 -2.640158 128.285032 55.309732 97.057388 0.000000 0.000000 0.000000 
-0.121977 0.901375 0.197077 -5.943446 -16.027371 4.959220 5.991261 0.286113 3.339434 1.400813 0.112725 26.535110 4.212838 9.605781 5.279853 0.000000 0.000000 0.000000 3.885797 4.046357 -25.071136 3.096083 1.278774 25.291410 -1.356064 -4.457610 1.389778 0.000000 0.000000 0.000000 12.032124 -0.877817 5.743330 -0.930358 0.559365 -26.578946 -7.415634 1.925684 23.239789 7.931495 -3.781738 -29.085558 0.000000 0.000000 0.000000 -18.729088 -18.372903 11.239189 -75.326274 -42.074269 20.413858 152.006324 -72.226193 -125.462374 0.000000 0.000000 0.000000 26.666450 7.539430 -0.360224 70.513899 13.551856 -0.525889 128.936510 60.123031 104.163930 0.000000 0.000000 0.000000 
